<?xml version="1.0" encoding="UTF-8" standalone="no"?>
<!-- Created with Inkscape (http://www.inkscape.org/) -->

<svg
   xmlns:dc="http://purl.org/dc/elements/1.1/"
   xmlns:cc="http://creativecommons.org/ns#"
   xmlns:rdf="http://www.w3.org/1999/02/22-rdf-syntax-ns#"
   xmlns:svg="http://www.w3.org/2000/svg"
   xmlns="http://www.w3.org/2000/svg"
   xmlns:sodipodi="http://sodipodi.sourceforge.net/DTD/sodipodi-0.dtd"
   xmlns:inkscape="http://www.inkscape.org/namespaces/inkscape"
   width="210mm"
   height="297mm"
   viewBox="0 0 744.09448819 1052.3622047"
   id="svg2"
   version="1.1"
   inkscape:version="0.91 r13725"
   sodipodi:docname="EagleLogo.svg">
  <defs
     id="defs4" />
  <sodipodi:namedview
     id="base"
     pagecolor="#ffffff"
     bordercolor="#666666"
     borderopacity="1.0"
     inkscape:pageopacity="0.0"
     inkscape:pageshadow="2"
     inkscape:zoom="1.979899"
     inkscape:cx="385.45891"
     inkscape:cy="473.92666"
     inkscape:document-units="px"
     inkscape:current-layer="layer1"
     showgrid="false"
     inkscape:window-width="1920"
     inkscape:window-height="1137"
     inkscape:window-x="1912"
     inkscape:window-y="-8"
     inkscape:window-maximized="1" />
  <metadata
     id="metadata7">
    <rdf:RDF>
      <cc:Work
         rdf:about="">
        <dc:format>image/svg+xml</dc:format>
        <dc:type
           rdf:resource="http://purl.org/dc/dcmitype/StillImage" />
        <dc:title />
      </cc:Work>
    </rdf:RDF>
  </metadata>
  <g
     inkscape:label="Layer 1"
     inkscape:groupmode="layer"
     id="layer1">
    <ellipse
       style="fill:#004455;stroke:none"
       id="path4231"
       cx="460.62955"
       cy="596.27832"
       rx="182.33253"
       ry="181.82747"
       inkscape:export-xdpi="39.488293"
       inkscape:export-ydpi="39.488293" />
    <path
       style="fill:#f9f9f9;stroke:none"
       d="m 562.32425,563.97683 c 0,15.03139 17.44048,100.15321 7.58825,111.53772 -5.38111,6.218 -26.96053,13.13269 -36.89327,12.97589 -18.45228,-0.29128 -31.92902,-16.70805 -50.49703,-16.70805 -5.42184,0 -33.43045,18.32733 -61.03298,19.30613 -21.57741,0.76515 -42.71024,-14.5314 -53.90765,-21.43878 -7.96373,-4.91261 22.472,-47.56684 22.472,-47.56684 11.09612,-15.81846 15.02108,-33.53449 8.3036,-42.31903 -24.13715,-31.5645 -18.87052,-25.90978 -18.87052,-47.878 -10e-6,-38.49289 40.0102,-48.63786 86.87311,-48.63786 46.86291,0 95.96449,42.23593 95.96449,80.72882 z"
       id="path4170"
       inkscape:connector-curvature="0"
       sodipodi:nodetypes="sssssssssss" />
    <path
       style="fill:#e6e6e6;stroke:none"
       d="m 435.4983,550.61751 c 4.82143,3.67791 -0.99235,5.32426 -1.83952,6.75448 -8.01996,13.53952 -50.50432,5.92318 -72.45401,5.92318 -16.73202,0 -10.01784,21.36846 -16.54492,15.50565 -2.93987,-2.64066 -2.40197,-23.46159 -2.40197,-29.61188 0,-19.80516 22.88762,-36.75328 47.15592,-36.75328 24.2683,0 30.33784,26.16989 46.0845,38.18185 z"
       id="path4177"
       inkscape:connector-curvature="0"
       sodipodi:nodetypes="sssssss" />
    <path
       style="fill:#e6e6e6;fill-opacity:1;stroke:none"
       d="m 470.69326,521.41334 c 10e-6,8.48152 -11.48113,15.35715 -20.35714,15.35715 -8.876,0 -16.07142,-6.87563 -16.07142,-15.35715 0,-8.48151 7.57423,-11.69533 16.45023,-11.69534 8.876,0 19.97833,3.21382 19.97833,11.69534 z"
       id="path4315"
       inkscape:connector-curvature="0"
       sodipodi:nodetypes="sssss" />
  </g>
</svg>
